<svg width="241" height="43" viewBox="0 0 241 43" fill="none" xmlns="http://www.w3.org/2000/svg">
<path d="M36.2 42.4L22.4 35.4L8.6 42.4L10.9 27.1L0 16.1L15.4 13.7L22.5 0L29.5 13.7L44.8 16.2L33.9 27.2L36.2 42.4ZM7 18.4L14.5 26L12.9 36.6L22.4 31.8L31.9 36.6L30.3 26L37.8 18.4L27.3 16.7L22.4 7.2L17.5 16.7L7 18.4Z" fill="#1A5276"/>
<path d="M21.9 4L27.9 15.6L40.8 17.7L31.6 27L33.6 39.9L21.9 34L10.2 39.9L12.2 27L3 17.7L15.9 15.6L21.9 4Z" fill="#FFD552"/>
<path d="M84.2 42.4L70.4 35.4L56.6 42.4L58.9 27.1L48 16.1L63.4 13.7L70.5 0L77.5 13.7L92.8 16.2L81.9 27.2L84.2 42.4ZM55 18.4L62.5 26L60.9 36.6L70.4 31.8L79.9 36.6L78.3 26L85.8 18.4L75.3 16.7L70.4 7.2L65.5 16.7L55 18.4Z" fill="#1A5276"/>
<path d="M69.9 4L75.9 15.6L88.8 17.7L79.6 27L81.6 39.9L69.9 34L58.2 39.9L60.2 27L51 17.7L63.9 15.6L69.9 4Z" fill="#FFD552"/>
<path d="M132.2 42.4L118.4 35.4L104.6 42.4L106.9 27.1L96 16.1L111.4 13.7L118.5 0L125.5 13.7L140.8 16.2L129.9 27.2L132.2 42.4ZM103 18.4L110.5 26L108.9 36.6L118.4 31.8L127.9 36.6L126.3 26L133.8 18.4L123.3 16.7L118.4 7.2L113.5 16.7L103 18.4Z" fill="#1A5276"/>
<path d="M182.2 42.4L168.4 35.4L154.6 42.4L156.9 27.1L146 16.1L161.4 13.7L168.5 0L175.5 13.7L190.8 16.2L179.9 27.2L182.2 42.4ZM153 18.4L160.5 26L158.9 36.6L168.4 31.8L177.9 36.6L176.3 26L183.8 18.4L173.3 16.7L168.4 7.2L163.5 16.7L153 18.4Z" fill="#1A5276"/>
<path d="M167.9 4L173.9 15.6L186.8 17.7L177.6 27L179.6 39.9L167.9 34L156.2 39.9L158.2 27L149 17.7L161.9 15.6L167.9 4Z" fill="#FFD552"/>
<path d="M117.9 3L123.9 14.6L136.8 16.7L127.6 26L129.6 38.9L117.9 33L106.2 38.9L108.2 26L99 16.7L111.9 14.6L117.9 3Z" fill="#FFD552"/>
</svg>
